<svg id="Icons" version="1.1" viewBox="0 0 32 32" xml:space="preserve" xmlns="http://www.w3.org/2000/svg" enable-background="new 0 0 32 32"><path d="M29.7 18.3c-3.1-3.1-8.2-3.1-11.3 0s-3.1 8.2 0 11.3 8.2 3.1 11.3 0 3.1-8.1 0-11.3zm-2 4.4-4 4c-.2.2-.4.3-.7.3s-.5-.1-.7-.3l-2-2c-.4-.4-.4-1 0-1.4s1-.4 1.4 0l1.3 1.3 3.3-3.3c.4-.4 1-.4 1.4 0s.4 1 0 1.4zM17 2.6V8h5.4z" fill="#94a3b8" class="fill-000000"></path><path d="M20.5 10H16c-.6 0-1-.4-1-1V2H4c-.6 0-1 .4-1 1v26c0 .6.4 1 1 1h12c-1.3-1.7-2-3.7-2-6 0-5.2 4-9.4 9-9.9v-1.6c0-1.4-1.1-2.5-2.5-2.5z" fill="#94a3b8" class="fill-000000"></path></svg>