<svg viewBox="0 0 108.26 98.27" xmlns="http://www.w3.org/2000/svg"><g data-name="Layer 2"><g data-name="Layer 1"><path d="m32.84 61.82 5.92 12 13.25 1.93-9.59 9.33 2.27 13.19-11.85-6.22L21 98.27l2.26-13.19-9.58-9.33 13.24-1.93 5.92-12zM32.84 41.9c10.9 0 19.76-9.4 19.76-21S43.74 0 32.84 0 13.08 9.4 13.08 21s8.87 20.9 19.76 20.9ZM77.79 38.9h.14a16.39 16.39 0 0 0 12-5.44 18.4 18.4 0 0 0 4.79-12.66C94.66 11 87.06 3 77.77 3h-.13a16.39 16.39 0 0 0-12 5.44 18.4 18.4 0 0 0-4.79 12.66 18.4 18.4 0 0 0 5 12.58 16.4 16.4 0 0 0 11.94 5.22ZM78.6 42.33H77A29.55 29.55 0 0 0 57.08 50 38.15 38.15 0 0 1 72 78.3h36.28V72A29.69 29.69 0 0 0 78.6 42.33Z" fill="#94a3b8" class="fill-000000"></path><path d="M52.84 54.75a31.71 31.71 0 0 0-19-6.29h-2A31.86 31.86 0 0 0 0 80.31v3.78h16.34L4.83 72.87l19.36-2.81 8.66-17.54 8.65 17.53 19.36 2.81-11.52 11.23h16.34v-3.78q0-1-.06-2a31.81 31.81 0 0 0-12.78-23.56Z" fill="#94a3b8" class="fill-000000"></path></g></g></svg>