<svg viewBox="0 0 32 32" xml:space="preserve" xmlns="http://www.w3.org/2000/svg"><path fill="none" d="M0 0h32v32H0z"></path><path d="M12.001 18a4 4 0 1 0 0-8 4 4 0 0 0 0 8zm12-3.941V5.584L18.415 0H.001v32h24v-.06C28.5 31.442 32 27.633 32 23s-3.5-8.443-7.999-8.941zM17.999 2.413 21.587 6h-3.588V2.413zM2.001 30V1.998h14v6.001h6v6.06A8.997 8.997 0 0 0 14.524 20H6.001s-2 0-2 2v6h11.518a9.005 9.005 0 0 0 1.832 2H2.001zm21-.001a7.01 7.01 0 0 1-7-6.999 7.009 7.009 0 0 1 7-7A7.01 7.01 0 0 1 30 23a7.011 7.011 0 0 1-6.999 6.999z" fill="#94a3b8" class="fill-000000"></path><path d="M22 27h-3v-3zM28 21l-5 5-3-3 5-5z" fill="#94a3b8" class="fill-000000"></path></svg>