<svg viewBox="0 0 512 512" xml:space="preserve" xmlns="http://www.w3.org/2000/svg" enable-background="new 0 0 512 512"><path d="M157.517 199.299h15.031v77.752h-15.031zM458.971 332.752H53.088c-5.148 0-9.335 4.206-9.335 9.376 0 5.118 4.188 9.281 9.335 9.281H458.97c5.115 0 9.277-4.163 9.277-9.281.001-5.17-4.161-9.376-9.276-9.376zM193.766 241.458h15.03v35.593h-15.03zM121.27 232.429h15.08v44.623h-15.08zM277.902 357.969l71.67 109.117h23.189L301.09 357.969zM230.013 214.934h15.031v62.118h-15.031zM339.41 199.299h15.072v77.752H339.41zM303.205 241.458h15.029v35.593h-15.029zM237.186 415.993v-50.136l-32.931 50.136zM211.379 357.969l-71.716 109.117h23.186l71.67-109.117zM243.746 357.969h24.467v109.117h-24.467zM266.956 214.934h15.03v62.118h-15.03zM266.634 55.594c0-5.789-4.87-10.68-10.634-10.68-5.765 0-10.634 4.891-10.634 10.68v16.543h21.268V55.594z" fill="#94a3b8" class="fill-000000"></path><path d="M454.011 326.192V103.82H58.039v222.373h395.972zm-86.852-205.853h65.424a3.28 3.28 0 1 1 0 6.56h-65.424a3.28 3.28 0 1 1 0-6.56zm0 14.24h65.424a3.28 3.28 0 1 1 0 6.56h-65.424a3.28 3.28 0 1 1 0-6.56zm0 19.076h65.424a3.28 3.28 0 1 1 0 6.56h-65.424a3.28 3.28 0 1 1 0-6.56zm0 14.331h65.424a3.28 3.28 0 1 1 0 6.56h-65.424a3.28 3.28 0 1 1 0-6.56zm30.131 61.163v51.183a3.28 3.28 0 0 1-3.28 3.279h-21.639a3.279 3.279 0 0 1-3.279-3.279v-51.183a3.28 3.28 0 0 1 3.279-3.28h21.639a3.28 3.28 0 0 1 3.28 3.28zm-64.438-33.129a3.28 3.28 0 0 1 3.279-3.28h21.632a3.28 3.28 0 0 1 3.28 3.28v84.313a3.28 3.28 0 0 1-3.28 3.279h-21.632a3.279 3.279 0 0 1-3.279-3.279V196.02zm-36.207 42.159a3.28 3.28 0 0 1 3.28-3.28h21.589a3.279 3.279 0 0 1 3.28 3.28v42.153a3.278 3.278 0 0 1-3.28 3.279h-21.589a3.28 3.28 0 0 1-3.28-3.279v-42.153zm-36.249-26.525a3.28 3.28 0 0 1 3.279-3.28h21.59a3.28 3.28 0 0 1 3.28 3.28v68.678a3.278 3.278 0 0 1-3.28 3.279h-21.59a3.278 3.278 0 0 1-3.279-3.279v-68.678zm-36.943 0a3.28 3.28 0 0 1 3.28-3.28h21.59a3.28 3.28 0 0 1 3.28 3.28v68.678a3.278 3.278 0 0 1-3.28 3.279h-21.59a3.28 3.28 0 0 1-3.28-3.279v-68.678zm-36.247 26.525a3.28 3.28 0 0 1 3.279-3.28h21.59a3.28 3.28 0 0 1 3.28 3.28v42.153a3.28 3.28 0 0 1-3.28 3.279h-21.59a3.278 3.278 0 0 1-3.279-3.279v-42.153zm-36.248-42.159a3.28 3.28 0 0 1 3.28-3.28h21.591a3.28 3.28 0 0 1 3.28 3.28v84.313a3.28 3.28 0 0 1-3.28 3.279h-21.591a3.28 3.28 0 0 1-3.28-3.279V196.02zm-36.248 33.129a3.28 3.28 0 0 1 3.28-3.28h21.639a3.28 3.28 0 0 1 3.28 3.28v51.183a3.278 3.278 0 0 1-3.28 3.279H117.99a3.28 3.28 0 0 1-3.28-3.279v-51.183zm-4.397 60.096H401.646a3.279 3.279 0 1 1 0 6.559H110.313a3.28 3.28 0 1 1 0-6.559z" fill="#94a3b8" class="fill-000000"></path><path d="M375.65 232.429h15.08v44.623h-15.08zM274.773 415.993h33.393l-33.393-50.842zM53.088 97.26h405.883c5.115 0 9.277-4.164 9.277-9.281 0-5.032-4.25-9.281-9.277-9.281H53.088c-5.148 0-9.335 4.163-9.335 9.281-.001 5.117 4.187 9.281 9.335 9.281z" fill="#94a3b8" class="fill-000000"></path></svg>