<svg viewBox="0 0 78 78" xml:space="preserve" xmlns="http://www.w3.org/2000/svg" enable-background="new 0 0 78 78"><path d="M13.5 9C15.981 9 18 6.981 18 4.5S15.981 0 13.5 0 9 2.019 9 4.5 11.019 9 13.5 9zm0 4.5C6.043 13.5 0 19.543 0 27c0 5.877 3.76 10.861 9 12.716V73.5a4.5 4.5 0 0 0 9 0V39.716c5.24-1.855 9-6.839 9-12.716 0-7.457-6.044-13.5-13.5-13.5zm0 22.5c-4.962 0-9-4.038-9-9s4.038-9 9-9 9 4.038 9 9-4.038 9-9 9zm51-22.5C57.043 13.5 51 19.543 51 27c0 5.877 3.76 10.861 9 12.716V73.5a4.5 4.5 0 0 0 9 0V39.716c5.24-1.855 9-6.839 9-12.716 0-7.457-6.044-13.5-13.5-13.5zm0 22.5c-4.962 0-9-4.038-9-9s4.038-9 9-9 9 4.038 9 9-4.038 9-9 9zm0-27C66.981 9 69 6.981 69 4.5S66.981 0 64.5 0 60 2.019 60 4.5 62.019 9 64.5 9zm-21 29.284V4.5a4.5 4.5 0 0 0-9 0v33.784c-5.24 1.855-9 6.839-9 12.716 0 7.457 6.044 13.5 13.5 13.5 7.457 0 13.5-6.043 13.5-13.5 0-5.877-3.76-10.861-9-12.716zM39 60c-4.962 0-9-4.038-9-9s4.038-9 9-9 9 4.038 9 9-4.038 9-9 9zm0 9c-2.481 0-4.5 2.019-4.5 4.5S36.519 78 39 78s4.5-2.019 4.5-4.5S41.481 69 39 69z" fill="#94a3b8" class="fill-333f4f"></path></svg>